<svg width="950" height="1096" viewBox="0 0 950 1096" fill="none" xmlns="http://www.w3.org/2000/svg">
<g clip-path="url(#clip0_1_176)">
<rect width="548" height="548" transform="matrix(0.866025 0.5 -0.866025 0.5 474.582 0)" fill="#84BF70"/>
<g clip-path="url(#clip1_1_176)">
<path d="M591.932 225.842C600.254 216.739 604.579 207.893 604.907 199.303C605.235 190.713 604.693 184.03 603.28 179.254C601.868 174.479 599.372 170.227 595.793 166.498C588.127 158.42 576.323 154.279 560.382 154.076C540.721 153.826 522.761 157.741 506.504 165.822C489.172 174.195 480.248 185.132 479.732 198.63C479.404 207.221 484.295 214.88 494.405 221.608C504.515 228.335 517.424 234.869 533.131 241.208C548.838 247.546 565.608 253.899 583.44 260.264C601.273 266.63 618.019 273.596 633.679 281.162C669.7 298.502 687.277 318.523 686.41 341.226C685.824 356.566 678.241 370.665 663.662 383.524C649.083 396.384 629.921 407.42 606.177 416.633C554.368 436.845 494.721 446.522 427.236 445.663C372.504 444.966 331.253 439.3 303.483 428.664C275.712 418.028 262.126 404.887 262.723 389.24C263.789 361.322 283.321 344.076 321.318 337.5C332.028 335.487 345.486 334.584 361.693 334.791C377.9 334.997 395.226 337.213 413.672 341.438C404.69 353.908 399.982 365.819 399.549 377.17C398.611 401.713 413.287 414.178 443.576 414.563C463.236 414.813 481.329 410.9 497.852 402.823C514.375 394.746 522.816 386.029 523.173 376.672C523.53 367.314 518.657 359.195 508.553 352.314C498.449 345.433 485.794 339.21 470.589 333.645C455.384 328.08 438.981 322.576 421.379 317.134C403.777 311.692 387.411 305.191 372.283 297.632C336.793 280.299 319.564 258.133 320.595 231.136C321.263 213.648 329.297 198.174 344.697 184.711C360.097 171.248 379.928 160.067 404.192 151.167C452.73 133.062 506.358 124.383 565.076 125.13C623.793 125.878 667.172 131.494 695.215 141.98C723.257 152.466 736.95 166.3 736.294 183.48C735.72 198.513 725.155 210.656 704.599 219.909C686.759 227.663 667.212 231.404 645.956 231.133C624.701 230.863 606.693 229.099 591.932 225.842Z" fill="#444444"/>
</g>
</g>
<g clip-path="url(#clip2_1_176)">
<rect width="548" height="548" transform="matrix(2.20305e-08 1 -0.866025 0.5 949.164 274)" fill="#8CC07A"/>
<g clip-path="url(#clip3_1_176)">
<path d="M623.186 645.093C611.474 640.842 605.618 626.963 605.618 603.456C605.618 579.949 611.905 558.424 624.477 538.882C637.05 519.341 654.186 503.305 675.887 490.777C689.665 482.822 712.916 472.363 745.639 459.4L780.773 445.468C792.485 440.401 804.454 434.337 816.682 427.277C828.911 420.218 839.158 411.125 847.425 399.998C859.825 406.393 866.025 419.332 866.025 438.815C866.025 458.298 858.964 479.105 844.842 501.236C830.374 524.413 813.841 541.371 795.24 552.11C786.284 557.281 774.573 562.56 760.106 567.948C743.228 642.919 734.789 703.065 734.789 748.385C734.789 793.705 744.089 822.855 762.689 835.835C754.078 859.867 743.4 879.268 730.655 894.038C717.91 908.808 701.979 921.712 682.862 932.75C663.745 943.787 648.245 946.277 636.361 940.219C624.477 934.162 618.535 917.792 618.535 891.108C618.535 860.189 625.425 815.338 639.203 756.557C652.981 698.2 670.203 643.784 690.871 593.308C680.882 597.805 670.72 603.036 660.387 609.002C639.03 621.332 626.63 633.362 623.186 645.093Z" fill="#444444"/>
</g>
</g>
<g clip-path="url(#clip4_1_176)">
<rect width="548" height="548" transform="matrix(0.866025 0.5 -2.20305e-08 1 0.013916 274)" fill="#84B673"/>
<path d="M107.819 497.567C95.017 478.874 88.616 457.465 88.616 433.34C88.616 409.215 95.4877 394.818 109.231 390.147C122.975 385.476 141.707 389.988 165.429 403.684C180.49 412.379 205.906 430.096 241.677 456.834L280.083 485.528C292.885 494.658 305.97 503.082 319.336 510.799C332.703 518.516 343.905 521.724 352.942 520.421C366.497 542.157 373.275 563.022 373.275 583.017C373.275 603.013 365.556 615.726 350.118 621.157C334.304 627.241 316.23 624.413 295.897 612.674C286.107 607.022 273.305 598.109 257.491 585.936C239.041 642.224 229.816 693.624 229.816 740.134C229.816 786.645 239.982 827.941 260.315 864.022C250.902 878.148 239.229 884.993 225.297 884.556C211.366 884.119 193.951 877.869 173.053 865.803C152.156 853.738 135.212 837.327 122.222 816.569C109.231 795.811 102.736 771.74 102.736 744.355C102.736 712.624 110.267 675.025 125.328 631.559C140.389 588.528 159.216 553.756 181.808 527.244C170.888 519.635 159.781 512.57 148.485 506.048C125.14 492.57 111.584 489.743 107.819 497.567Z" fill="#444444"/>
</g>
<defs>
<clipPath id="clip0_1_176">
<rect width="548" height="548" fill="white" transform="matrix(0.866025 0.5 -0.866025 0.5 474.582 0)"/>
</clipPath>
<clipPath id="clip1_1_176">
<rect width="1062.03" height="1385.75" fill="white" transform="matrix(1.22445 0.0155861 -0.026996 0.706935 -173.704 -453.053)"/>
</clipPath>
<clipPath id="clip2_1_176">
<rect width="548" height="548" fill="white" transform="matrix(2.20305e-08 1 -0.866025 0.5 949.164 274)"/>
</clipPath>
<clipPath id="clip3_1_176">
<rect width="356" height="681" fill="white" transform="matrix(0.866025 -0.5 2.20305e-08 1 605.352 472.5)"/>
</clipPath>
<clipPath id="clip4_1_176">
<rect width="548" height="548" fill="white" transform="matrix(0.866025 0.5 -2.20305e-08 1 0.013916 274)"/>
</clipPath>
</defs>
</svg>
